# xmcd CD database file
#
# Track frame offsets:
#	150
#	24418
#	39383
#	52545
#	65479
#	91942
#	108155
#	121181
#	132567
#	175623
#	188248
#	198944
#	216878
#	230316
#	244400
#	257243
#	268928
#	279868
#	294571
#	306170
#
# Disc length: 4259 seconds
#
# Revision: 2
# Processed by: cddbd v1.5.2PL0 Copyright (c) Steve Scherf et al.
# Submitted via: CDex 1.51
#
DISCID=1a10a114
DTITLE=Various Artist - Jazz and Blues  {CD 1-3] 
DYEAR=2011
DGENRE=Jazz
TTITLE0=Take Five - DAVE BRUBECK  . . . . . . .  { Jazz }
TTITLE1=Petite Fleur - SIDNEY BECHET
TTITLE2=Caravan - DIZZY GILLESPIE
TTITLE3=Take The ''A'' Train - DUKE ELLINGTON and HIS ORCHESTRA
TTITLE4=Ckeek To Cheek - ELLA FITZGERALD and LOUIS ARMSTRONG
TTITLE5=In The Mood - GLENN MILLER
TTITLE6=Alexander's Ragttime Band - RAY CHARLES
TTITLE7=I'll See You In My Dreams - DJANGO REINHARDT
TTITLE8=Moanin' - ART BLACKEY, AMP and THE JAZZ MESSENGERS
TTITLE9=Misty - EROLL GARDNER
TTITLE10=Stranger Blues - SONNY TERRY and BROWNIE MCGHEE  . . . . . . .  { Blues }
TTITLE11=V-8 Ford Blues - JAMES COTTON
TTITLE12=Mojo Hand - LIGHTNIN' HOPKINS
TTITLE13=My Mamma Don't Allow Me - ARTHUR BIG BOY CRUDUP
TTITLE14=Money Spending Woman - BLIND BOY FULLER
TTITLE15=Good Morning Little School Girl - MISSISSIPPI FRED MC D
TTITLE16=Mama Talk To Your Daughter - J.B. LENOIR
TTITLE17=Baby Please Don't go - MUDDY WATERS
TTITLE18=CC Rider - RAY CHARLES
TTITLE19=Meet Around The Corner - BIG JOE WILLIAMS
EXTD=YEAR: 2011
EXTT0=
EXTT1=
EXTT2=
EXTT3=
EXTT4=
EXTT5=
EXTT6=
EXTT7=
EXTT8=
EXTT9=
EXTT10=
EXTT11=
EXTT12=
EXTT13=
EXTT14=
EXTT15=
EXTT16=
EXTT17=
EXTT18=
EXTT19=
PLAYORDER=
